<?xml version="1.0" standalone="no"?><!DOCTYPE svg PUBLIC "-//W3C//DTD SVG 1.1//EN" "http://www.w3.org/Graphics/SVG/1.1/DTD/svg11.dtd"><svg class="icon" height="512" viewBox="0 0 1024 1024" version="1.1" xmlns="http://www.w3.org/2000/svg"><path d="M730.946021 458.105263 565.894737 458.105263 565.894737 293.053979 619.788126 239.159242 619.788126 360.4224 727.5776 252.632926 771.367074 296.4224 663.5776 404.211874 784.840758 404.211874 730.946021 458.105263ZM458.105263 293.053979 458.105263 458.105263 293.052632 458.105263 239.157895 404.211874 360.421053 404.211874 252.631579 296.4224 296.421053 252.632926 404.210526 360.4224 404.210526 239.159242 458.105263 293.053979ZM293.052632 565.894737 458.105263 565.894737 458.105263 730.947368 404.210526 784.842105 404.210526 663.578947 296.421053 771.368421 252.631579 727.578947 360.421053 619.789474 239.157895 619.789474 293.052632 565.894737ZM565.894737 730.947368 565.894737 565.894737 730.946021 565.894737 784.840758 619.789474 663.5776 619.790821 771.367074 727.578947 727.5776 771.368421 619.788126 663.578947 619.788126 784.842105 565.894737 730.947368Z" /></svg>